<?xml version="1.0" encoding="utf-8"?>
<!-- Generator: Adobe Illustrator 25.2.1, SVG Export Plug-In . SVG Version: 6.00 Build 0)  -->
<svg version="1.1" id="Camada_1" xmlns="http://www.w3.org/2000/svg" xmlns:xlink="http://www.w3.org/1999/xlink" x="0px" y="0px"
	 viewBox="0 0 566.93 274.19" style="enable-background:new 0 0 566.93 274.19;" xml:space="preserve">
<style type="text/css">
	.st0{fill:none;stroke:#000000;stroke-width:4.8925;stroke-miterlimit:10;}
	.st1{stroke:#FFFFFF;stroke-width:3.914;stroke-miterlimit:10;}
</style>
<g>
	<g>
		<path d="M120.4,184.44c-4.47-5.2-12.09-10.62-22.88-16.26c-1.96-0.98-5.5-2.68-10.62-5.12c-5.12-2.44-8.99-4.42-11.6-5.94
			c-9.59-5.31-13.89-11.65-12.91-19.03c0.21-1.96,0.77-3.81,1.65-5.55c0,0,0,0,0,0c2.31,1.54,4.87,2.88,7.68,4.02
			c5.43,2.21,11.43,3.36,17.99,3.45c0.68,0,1.3,0,1.87,0c4.98,0.09,10.13-0.55,15.45-1.93c2.23-0.58,4.34-1.33,6.35-2.25
			c0,0,0,0,0,0c5.38-2.78,6.42-8.28,1.15-11.9c0,0,0,0,0,0c0,0-1.1-0.77-2.29-1.45c-3.6-2.06-7.46-3.6-11.6-4.64
			c-4.14-1.03-8.45-1.54-12.91-1.54c-8.68,0.11-16.15,2.42-22.41,6.94c0,0,0,0,0,0c-5.73-7.98-8.75-18.43-9.04-31.36
			c0.34-15.17,4.41-26.94,12.22-35.31c6.34-6.71,13.86-10.21,22.58-10.48c6.45-0.18,12.31,1.45,17.57,4.9
			c5.26,3.45,7.84,7.75,7.72,12.9c0,1.84,0.88,3.08,2.63,3.72c1.75,0.64,3.51,0.62,5.26-0.07c1.75-0.69,2.63-1.77,2.63-3.24
			c0.11-4.41-1.81-8.25-5.77-11.52c-3.96-3.26-8.57-5.61-13.83-7.03c-5.26-1.42-10.5-2.09-15.7-2c-0.57,0-1.19,0-1.87,0
			c-9.39,0.09-17.46,2.3-24.19,6.62c-6.73,4.32-11.91,10.16-15.53,17.52c-2.49,5.24-3.96,10.76-4.41,16.55
			c-0.23,2.3-0.34,4.97-0.34,8c0,3.22,0.17,6.02,0.51,8.41c0.57,5.06,1.89,9.89,3.99,14.48c2.09,4.6,4.92,8.74,8.49,12.41l1.03,1.06
			c0.01,0.01,0.01,0.03,0,0.05c-2.74,3.37-4.42,7.16-5.04,11.36c-0.65,4.66,0.16,9.03,2.45,13.09c2.29,4.07,5.56,7.62,9.81,10.65
			c3.81,2.82,10.84,6.72,21.08,11.71c6.21,3.15,10.79,5.58,13.73,7.32c4.68,2.71,8.34,5.26,10.95,7.64
			c4.47,4.23,6.54,8.94,6.21,14.15c-0.33,4.55-2.21,8.7-5.64,12.44c-3.43,3.74-7.44,6.53-12.01,8.37
			c-5.56,2.28-11.11,2.87-16.67,1.79c-5.56-1.08-10.57-3.63-15.04-7.64c-5.56-5.31-8.34-12.95-8.34-22.93
			c0-2.49-1.04-4.17-3.11-5.04c-1.74-0.87-3.49-0.79-5.23,0.24c-1.75,1.03-2.51,2.63-2.29,4.8c0,7.37,1.93,13.66,5.8,18.86
			c3.87,5.2,9.29,9.16,16.26,11.87c5.56,2.06,11.36,3.04,17.41,2.93c6.05-0.11,11.79-1.35,17.24-3.74c4.9-2.06,9.15-4.93,12.75-8.62
			c3.6-3.68,5.88-7.86,6.86-12.52C128.09,198.21,126.07,191.16,120.4,184.44z M70.55,125.24c5.01-3.79,10.79-5.8,17.33-6.02
			c6.86-0.22,12.95,1.44,17.81,5.53c3.86,3.25,2.17,7.24-1.31,9.42c-3.75,2.35-9.6,3.22-13.11,3.12
			c-8.84-0.19-16.5-3.37-22.89-10.28c0-0.01,0-0.01,0-0.01C69.05,126.41,69.77,125.81,70.55,125.24z"/>
		<polygon class="st0" points="159.61,225.26 159.61,48.99 86.12,8.61 12.62,48.99 12.62,225.26 86.12,265.58 		"/>
		<circle class="st1" cx="159.61" cy="224.63" r="8.01"/>
		<circle class="st1" cx="12.62" cy="49.61" r="8.01"/>
	</g>
	<g>
		<g>
			<g>
				<path d="M196.14,92.25c0.24,0,0.45,0,0.65,0c1.81-0.04,3.63,0.25,5.46,0.86c1.83,0.61,3.43,1.61,4.81,3.01
					c1.38,1.4,2.05,3.04,2.01,4.93c0,0.63-0.31,1.09-0.92,1.39c-0.61,0.3-1.22,0.31-1.83,0.03c-0.61-0.27-0.91-0.81-0.91-1.59
					c0.04-2.2-0.86-4.04-2.69-5.52c-1.83-1.48-3.87-2.18-6.11-2.1c-3.03,0.12-5.65,1.61-7.86,4.49c-2.72,3.58-4.13,8.62-4.25,15.12
					c0.12,6.54,1.56,11.6,4.31,15.18c2.2,2.88,4.82,4.35,7.85,4.43c2.24,0.08,4.27-0.62,6.08-2.1c1.81-1.48,2.7-3.32,2.66-5.52
					v-0.06c0-0.75,0.3-1.27,0.91-1.56c0.61-0.3,1.22-0.29,1.83,0.03c0.61,0.32,0.92,0.79,0.92,1.42c0,0.04,0,0.1,0,0.18
					c0.04,1.81-0.64,3.42-2.04,4.81c-1.4,1.4-3.02,2.39-4.87,2.98c-1.85,0.59-3.64,0.87-5.37,0.83c-0.2,0-0.41,0-0.65,0
					c-2.28-0.04-4.37-0.53-6.26-1.48c-1.89-0.94-3.46-2.2-4.7-3.78c-1.24-1.57-2.22-3.35-2.95-5.32c-0.73-1.97-1.19-4.03-1.39-6.2
					c-0.12-1.02-0.18-2.22-0.18-3.6c0-1.3,0.04-2.44,0.12-3.43c0.16-2.48,0.67-4.84,1.54-7.09c1.26-3.15,3.06-5.65,5.4-7.5
					C190.07,93.24,192.87,92.29,196.14,92.25z"/>
				<path d="M233.17,130.23c-1.77,1.97-4.49,3.11-8.15,3.43c-1.89,0.16-3.73-0.02-5.52-0.53c-1.79-0.51-3.16-1.4-4.1-2.66
					c-0.75-1.02-1.12-2.2-1.12-3.54c0-1.69,0.51-2.98,1.54-3.87c1.02-0.89,2.44-1.58,4.25-2.1c0.67-0.2,2.17-0.53,4.49-1.01
					c0.98-0.24,1.75-0.42,2.3-0.56c0.55-0.14,1.3-0.35,2.24-0.65s1.75-0.67,2.42-1.12c0.67-0.45,1.2-0.97,1.59-1.57
					c-0.2-2.24-0.86-4.1-1.98-5.55c-1.12-1.46-2.41-2.35-3.87-2.69c-1.46-0.33-2.91-0.32-4.37,0.03c-1.46,0.35-2.68,1.21-3.66,2.57
					c-0.98,1.36-1.48,3.02-1.48,4.99c0,0.79-0.29,1.32-0.89,1.59c-0.59,0.28-1.17,0.25-1.74-0.09c-0.57-0.33-0.82-0.84-0.74-1.51
					c0-0.95,0.16-1.83,0.47-2.66c0.83-1.93,2.32-3.44,4.49-4.55c2.17-1.14,4.45-1.61,6.85-1.42c2.6,0.16,4.78,1.06,6.56,2.72
					c2.05,1.89,3.29,4.51,3.72,7.85c0.04,0.32,0.08,0.87,0.12,1.65v14.53h-3.43V130.23z M233.17,121.07c0.04-0.98,0.04-2.05,0-3.19
					c-1.14,1.26-3.51,2.28-7.09,3.07c-2.83,0.63-4.67,1.1-5.49,1.42c-1.93,0.79-2.89,2.32-2.89,4.61c0,1.97,0.65,3.48,1.95,4.55
					c1.61,1.22,3.58,1.63,5.91,1.24c2.32-0.39,4.07-1.38,5.26-2.95C232.27,127.88,233.05,124.97,233.17,121.07z"/>
				<path d="M247.23,107.49c1.06-0.83,2.22-1.38,3.48-1.65c1.26-0.28,2.52-0.24,3.78,0.12c1.46,0.51,2.4,1.3,2.83,2.36v0.06
					c0.16,0.47,0.19,0.91,0.09,1.3c-0.1,0.4-0.32,0.68-0.65,0.86c-0.33,0.18-0.67,0.28-1,0.3c-0.33,0.02-0.67-0.1-1-0.35
					c-0.33-0.26-0.58-0.62-0.74-1.09c-0.24-0.67-0.59-1.22-1.06-1.65c-0.94-0.91-2.06-1.14-3.34-0.71c-1.28,0.43-2.06,1.3-2.33,2.6
					c-0.04,0.2-0.06,0.43-0.06,0.71v23.39h-3.43v-26.52h3.43V107.49z"/>
				<path d="M260.4,123.2c-0.32-3.03-0.16-5.73,0.47-8.09c0.51-2.05,1.44-3.76,2.78-5.14c1.34-1.38,3.01-2.3,5.02-2.78
					c0.91-0.28,1.85-0.39,2.84-0.35c0.04,0,0.12,0,0.24,0c0.12,0,0.24,0,0.35,0c0.87-0.04,1.69,0.06,2.48,0.3
					c2.17,0.47,3.95,1.44,5.35,2.89c1.4,1.46,2.35,3.29,2.87,5.49c0.59,2.44,0.69,5.12,0.3,8.03c-0.16,1.26-0.46,2.42-0.92,3.49
					c-0.45,1.06-1.03,2.03-1.71,2.89c-0.69,0.87-1.54,1.59-2.54,2.18c-1.01,0.59-2.12,1.03-3.34,1.3c-0.79,0.2-1.61,0.3-2.48,0.3
					c-0.12,0-0.24,0-0.35,0h-0.06c-0.08,0-0.14,0-0.18,0c-0.98,0-1.93-0.12-2.84-0.35c-2.4-0.59-4.3-1.79-5.7-3.6
					C261.57,127.94,260.71,125.76,260.4,123.2z M266.3,110.68c-1.61,2.24-2.48,5.43-2.6,9.57c0.12,4.17,0.98,7.36,2.6,9.57
					c1.34,1.89,3.03,2.91,5.08,3.07c0.2,0,0.35,0,0.47,0c0.08,0,0.18,0,0.3,0c2.09-0.16,3.8-1.18,5.14-3.07
					c1.57-2.2,2.42-5.39,2.54-9.57c-0.12-4.13-0.97-7.32-2.54-9.57c-1.34-1.85-3.05-2.85-5.14-3.01c-0.12-0.04-0.22-0.06-0.3-0.06
					c-0.12,0-0.28,0.02-0.47,0.06C269.33,107.82,267.64,108.83,266.3,110.68z"/>
				<path d="M289.93,133.71v-19.37c0-0.08,0-0.16,0-0.24V92.19h3.43v41.52H289.93z"/>
				<path d="M301.21,98.33c-0.43-0.43-0.65-0.94-0.65-1.54c0-0.59,0.21-1.1,0.65-1.54c0.43-0.43,0.95-0.65,1.54-0.65
					c0.59,0,1.1,0.22,1.54,0.65c0.43,0.43,0.65,0.95,0.65,1.54c0,0.59-0.22,1.1-0.65,1.54c-0.43,0.43-0.94,0.65-1.54,0.65
					C302.15,98.98,301.64,98.77,301.21,98.33z M304.45,106.78v26.93h-3.43v-26.93H304.45z"/>
				<path d="M315.56,112.15c1.14-1.3,2.52-2.44,4.13-3.43c1.61-0.98,3.19-1.55,4.73-1.71c2.83-0.28,5.08,0.77,6.73,3.13
					c0.83,1.1,1.35,2.19,1.56,3.25c0.22,1.06,0.32,2.44,0.32,4.13v16.18h-3.42v-16.18c0-2.99-0.49-5.18-1.48-6.55
					c-0.59-0.87-1.34-1.48-2.25-1.83c-1.54-0.63-3.25-0.49-5.14,0.41c-1.97,0.91-3.7,2.42-5.2,4.55v19.61h-3.43v-26.52h3.43V112.15z
					"/>
				<path d="M361.5,124.91c-0.04,2.83-1.5,5.12-4.37,6.85c-2.95,1.73-6.06,2.22-9.33,1.48c-3.82-0.83-6.4-3.13-7.74-6.91
					c-0.55-1.69-0.83-3.6-0.83-5.73c0.04-4.13,1.08-7.42,3.13-9.86c1.73-2.13,4.04-3.43,6.91-3.9c2.56-0.39,5-0.08,7.32,0.95
					c2.4,1.02,3.92,2.48,4.55,4.37c0.24,0.59,0.35,1.2,0.35,1.83c0,0.95-0.26,1.79-0.77,2.54c-0.71,1.02-2.01,1.85-3.9,2.48
					c-0.91,0.32-2.74,0.75-5.49,1.3c-2.01,0.43-3.54,0.85-4.61,1.24c-1.89,0.67-3.23,1.58-4.02,2.72c0.24,2.72,1.18,4.84,2.83,6.38
					c1.46,1.38,3.19,2.07,5.2,2.07c0.75,0,1.46-0.1,2.13-0.3c1.65-0.51,2.93-1.45,3.84-2.81s1.36-2.92,1.36-4.69
					c0-0.83,0.3-1.38,0.89-1.65c0.59-0.28,1.17-0.24,1.74,0.12C361.28,123.73,361.54,124.24,361.5,124.91z M342.66,120.9
					c0,0.16,0,0.44,0,0.86c0,0.41,0,0.7,0,0.86c1.22-1.22,3.44-2.25,6.67-3.07c2.95-0.71,4.63-1.12,5.02-1.24
					c1.61-0.55,2.68-1.22,3.19-2.01c0.35-0.51,0.53-1.1,0.53-1.77c0-1.5-0.39-2.83-1.18-4.02c-0.79-1.18-1.85-2.05-3.19-2.6
					c-1.26-0.47-2.53-0.58-3.81-0.33c-1.28,0.26-2.41,0.84-3.4,1.74C343.94,111.64,342.66,115.5,342.66,120.9z"/>
			</g>
			<g>
				<path d="M385.55,132.5c-2.52-0.98-4.48-2.42-5.88-4.31c-1.4-1.89-2.1-4.17-2.1-6.85c-0.08-0.79,0.2-1.37,0.83-1.74
					c0.63-0.37,1.26-0.4,1.89-0.09c0.75,0.32,1.12,0.93,1.12,1.83c0,3.62,1,6.4,3.01,8.33c1.61,1.46,3.43,2.38,5.43,2.78
					c2.01,0.39,4.02,0.18,6.02-0.65c1.65-0.67,3.1-1.68,4.34-3.04c1.24-1.36,1.92-2.87,2.04-4.52c0.12-1.89-0.63-3.6-2.24-5.14
					c-0.94-0.87-2.26-1.79-3.96-2.78c-1.06-0.63-2.72-1.52-4.96-2.66c-3.7-1.81-6.24-3.23-7.62-4.25c-1.54-1.1-2.72-2.39-3.54-3.87
					c-0.83-1.48-1.12-3.06-0.89-4.76c0.35-2.4,1.65-4.43,3.9-6.08c2.28-1.69,5.02-2.56,8.21-2.6c1.61,0,3.17,0.19,4.67,0.56
					c1.5,0.37,2.89,0.94,4.19,1.68c1.3,0.75,2.35,1.78,3.16,3.1c0.81,1.32,1.23,2.83,1.27,4.52c0.04,0.71-0.23,1.25-0.8,1.62
					c-0.57,0.37-1.16,0.41-1.77,0.12c-0.61-0.3-0.94-0.86-0.97-1.68c-0.12-2.95-1.2-5.24-3.25-6.85c-1.81-1.42-3.96-2.09-6.44-2.01
					c-2.36,0.08-4.45,0.81-6.26,2.18c-1.77,1.3-2.76,2.85-2.95,4.67c-0.35,2.68,1.2,4.98,4.67,6.91c0.95,0.55,2.34,1.27,4.19,2.16
					c1.85,0.89,3.13,1.51,3.84,1.86c3.9,2.05,6.65,4.02,8.27,5.91c2.05,2.44,2.78,5,2.19,7.68c-0.35,1.69-1.18,3.21-2.48,4.55
					c-1.3,1.34-2.84,2.38-4.61,3.13c-1.97,0.87-4.05,1.32-6.23,1.36C389.66,133.6,387.56,133.25,385.55,132.5z"/>
				<path d="M429.79,130.32c-1.77,1.97-4.49,3.11-8.15,3.43c-1.89,0.16-3.73-0.02-5.52-0.53c-1.79-0.51-3.16-1.4-4.1-2.66
					c-0.75-1.02-1.12-2.2-1.12-3.54c0-1.69,0.51-2.98,1.54-3.87c1.02-0.89,2.44-1.58,4.25-2.1c0.67-0.2,2.17-0.53,4.49-1.01
					c0.98-0.24,1.75-0.42,2.3-0.56c0.55-0.14,1.3-0.35,2.24-0.65c0.95-0.3,1.75-0.67,2.42-1.12c0.67-0.45,1.2-0.97,1.59-1.57
					c-0.2-2.24-0.86-4.1-1.98-5.55c-1.12-1.46-2.41-2.35-3.87-2.69c-1.46-0.33-2.91-0.32-4.37,0.03c-1.46,0.35-2.68,1.21-3.66,2.57
					c-0.98,1.36-1.48,3.02-1.48,4.99c0,0.79-0.29,1.32-0.89,1.59c-0.59,0.28-1.17,0.25-1.74-0.09c-0.57-0.33-0.82-0.84-0.74-1.51
					c0-0.95,0.16-1.83,0.47-2.66c0.83-1.93,2.32-3.44,4.49-4.55c2.17-1.14,4.45-1.61,6.85-1.42c2.6,0.16,4.78,1.06,6.56,2.72
					c2.05,1.89,3.29,4.51,3.72,7.85c0.04,0.32,0.08,0.87,0.12,1.65v14.53h-3.43V130.32z M429.79,121.16c0.04-0.98,0.04-2.05,0-3.19
					c-1.14,1.26-3.51,2.28-7.09,3.07c-2.83,0.63-4.67,1.1-5.49,1.42c-1.93,0.79-2.89,2.32-2.89,4.61c0,1.97,0.65,3.48,1.95,4.55
					c1.61,1.22,3.58,1.63,5.91,1.24c2.32-0.39,4.07-1.38,5.26-2.95C428.88,127.97,429.67,125.06,429.79,121.16z"/>
				<path d="M443.84,112.24c1.14-1.3,2.52-2.44,4.13-3.43c1.61-0.98,3.19-1.55,4.72-1.71c2.84-0.28,5.08,0.77,6.73,3.13
					c0.82,1.1,1.35,2.19,1.56,3.25c0.22,1.06,0.33,2.44,0.33,4.13v16.18h-3.43v-16.18c0-2.99-0.49-5.18-1.48-6.55
					c-0.59-0.87-1.34-1.48-2.24-1.83c-1.54-0.63-3.25-0.49-5.14,0.41c-1.97,0.91-3.7,2.42-5.2,4.55v19.61h-3.43v-26.52h3.43V112.24z
					"/>
				<path d="M468.89,107.93h-3.01v-1.18h3.01v-9.57h3.37v9.57h7.44v1.18h-7.44v15.35c0,3.46,0.51,5.91,1.54,7.32
					c1.3,1.85,3.15,2.52,5.55,2.01l0.3-0.06v0.71l-0.18,0.06c-0.32,0.12-0.64,0.22-0.97,0.3c-0.33,0.08-0.66,0.12-0.97,0.12
					c-2.83,0.28-5.1-0.75-6.79-3.07c-0.79-1.1-1.29-2.19-1.51-3.28c-0.22-1.08-0.32-2.45-0.32-4.11V107.93z"/>
				<path d="M502.08,130.32c-1.77,1.97-4.49,3.11-8.15,3.43c-1.89,0.16-3.73-0.02-5.52-0.53c-1.79-0.51-3.16-1.4-4.11-2.66
					c-0.75-1.02-1.12-2.2-1.12-3.54c0-1.69,0.51-2.98,1.54-3.87c1.02-0.89,2.44-1.58,4.25-2.1c0.67-0.2,2.17-0.53,4.49-1.01
					c0.98-0.24,1.75-0.42,2.3-0.56c0.55-0.14,1.3-0.35,2.24-0.65s1.75-0.67,2.42-1.12c0.67-0.45,1.2-0.97,1.59-1.57
					c-0.2-2.24-0.86-4.1-1.98-5.55c-1.12-1.46-2.41-2.35-3.87-2.69c-1.46-0.33-2.91-0.32-4.37,0.03c-1.46,0.35-2.68,1.21-3.66,2.57
					c-0.98,1.36-1.48,3.02-1.48,4.99c0,0.79-0.3,1.32-0.89,1.59c-0.59,0.28-1.17,0.25-1.74-0.09c-0.57-0.33-0.82-0.84-0.74-1.51
					c0-0.95,0.16-1.83,0.47-2.66c0.83-1.93,2.32-3.44,4.49-4.55c2.16-1.14,4.45-1.61,6.85-1.42c2.6,0.16,4.78,1.06,6.56,2.72
					c2.05,1.89,3.29,4.51,3.72,7.85c0.04,0.32,0.08,0.87,0.12,1.65v14.53h-3.43V130.32z M502.08,121.16c0.04-0.98,0.04-2.05,0-3.19
					c-1.14,1.26-3.5,2.28-7.09,3.07c-2.83,0.63-4.67,1.1-5.49,1.42c-1.93,0.79-2.89,2.32-2.89,4.61c0,1.97,0.65,3.48,1.95,4.55
					c1.61,1.22,3.58,1.63,5.91,1.24s4.08-1.38,5.26-2.95C501.17,127.97,501.96,125.06,502.08,121.16z"/>
				<path d="M516.13,112.24c1.14-1.3,2.52-2.44,4.13-3.43c1.61-0.98,3.19-1.55,4.73-1.71c2.83-0.28,5.08,0.77,6.73,3.13
					c0.83,1.1,1.35,2.19,1.56,3.25c0.22,1.06,0.32,2.44,0.32,4.13v16.18h-3.42v-16.18c0-2.99-0.49-5.18-1.48-6.55
					c-0.59-0.87-1.34-1.48-2.25-1.83c-1.54-0.63-3.25-0.49-5.14,0.41c-1.97,0.91-3.7,2.42-5.2,4.55v19.61h-3.43v-26.52h3.43V112.24z
					"/>
				<path d="M558.89,130.32c-1.77,1.97-4.49,3.11-8.15,3.43c-1.89,0.16-3.73-0.02-5.52-0.53c-1.79-0.51-3.16-1.4-4.11-2.66
					c-0.75-1.02-1.12-2.2-1.12-3.54c0-1.69,0.51-2.98,1.54-3.87c1.02-0.89,2.44-1.58,4.25-2.1c0.67-0.2,2.17-0.53,4.49-1.01
					c0.98-0.24,1.75-0.42,2.3-0.56c0.55-0.14,1.3-0.35,2.24-0.65s1.75-0.67,2.42-1.12c0.67-0.45,1.2-0.97,1.59-1.57
					c-0.2-2.24-0.86-4.1-1.98-5.55s-2.41-2.35-3.87-2.69c-1.46-0.33-2.91-0.32-4.37,0.03c-1.46,0.35-2.68,1.21-3.66,2.57
					c-0.98,1.36-1.48,3.02-1.48,4.99c0,0.79-0.3,1.32-0.89,1.59c-0.59,0.28-1.17,0.25-1.74-0.09c-0.57-0.33-0.82-0.84-0.74-1.51
					c0-0.95,0.16-1.83,0.47-2.66c0.83-1.93,2.32-3.44,4.49-4.55c2.16-1.14,4.45-1.61,6.85-1.42c2.6,0.16,4.78,1.06,6.56,2.72
					c2.05,1.89,3.29,4.51,3.72,7.85c0.04,0.32,0.08,0.87,0.12,1.65v14.53h-3.43V130.32z M558.89,121.16c0.04-0.98,0.04-2.05,0-3.19
					c-1.14,1.26-3.5,2.28-7.09,3.07c-2.83,0.63-4.67,1.1-5.49,1.42c-1.93,0.79-2.89,2.32-2.89,4.61c0,1.97,0.65,3.48,1.95,4.55
					c1.61,1.22,3.58,1.63,5.91,1.24s4.08-1.38,5.26-2.95C557.99,127.97,558.77,125.06,558.89,121.16z"/>
			</g>
		</g>
		<g>
			<path d="M193.45,157.59h1.6v17.57h-1.6v-1.7c-1.49,1.49-3.27,2.24-5.32,2.24c-2.06,0-3.82-0.73-5.27-2.18
				c-1.46-1.46-2.18-3.21-2.18-5.27c0-2.06,0.73-3.82,2.18-5.27c1.46-1.45,3.21-2.18,5.27-2.18c2.06,0,3.83,0.75,5.32,2.24V157.59z
				 M193.45,165.75c-0.28-0.6-0.68-1.15-1.19-1.66c-1.14-1.14-2.51-1.7-4.13-1.7c-1.62,0-3,0.57-4.14,1.71
				c-1.14,1.14-1.72,2.53-1.72,4.14c0,1.62,0.57,3,1.72,4.14c1.14,1.14,2.52,1.72,4.14,1.72c1.62,0,3-0.58,4.13-1.73
				c0.51-0.5,0.91-1.04,1.19-1.64V165.75z"/>
			<path d="M202.14,172.93c1.02,0.78,2.2,1.17,3.54,1.17c1.62,0,3-0.58,4.15-1.73l1.13,1.13c-1.46,1.46-3.22,2.19-5.28,2.19
				c-2.06,0-3.82-0.73-5.27-2.18c-1.46-1.46-2.18-3.21-2.18-5.27c0-2.06,0.73-3.82,2.18-5.27c1.46-1.45,3.21-2.18,5.27-2.18
				c2.06,0,3.82,0.72,5.28,2.17c0.18,0.2,0.36,0.4,0.53,0.62L202.14,172.93z M209.23,163.58c-1.02-0.79-2.21-1.19-3.56-1.19
				c-1.62,0-3,0.57-4.14,1.71c-1.14,1.14-1.72,2.53-1.72,4.14c0,1.35,0.4,2.54,1.19,3.56L209.23,163.58z"/>
			<path d="M214.68,173.06c1.27,0.7,2.55,1.05,3.85,1.05c1.12,0,2.03-0.23,2.73-0.68c0.69-0.45,1.04-1.06,1.04-1.81
				c0-0.55-0.16-1.02-0.49-1.41c-0.33-0.38-0.85-0.65-1.57-0.81l-2.98-0.72c-1.11-0.33-1.94-0.82-2.5-1.49
				c-0.56-0.67-0.84-1.47-0.84-2.41c0-1.08,0.43-2.01,1.3-2.78c0.87-0.77,2.01-1.18,3.45-1.2c2.02,0,3.71,0.56,5.07,1.68l-1.23,1.07
				c-1.11-0.77-2.38-1.15-3.81-1.15c-1.04,0.03-1.82,0.28-2.36,0.76c-0.54,0.48-0.81,1.03-0.81,1.65c0,0.54,0.17,1,0.51,1.4
				c0.34,0.39,0.87,0.68,1.58,0.88l3.13,0.81c0.99,0.24,1.77,0.68,2.33,1.33c0.56,0.64,0.84,1.44,0.84,2.4
				c0,1.21-0.5,2.19-1.51,2.95c-1.01,0.76-2.29,1.14-3.85,1.14c-1.77,0-3.41-0.46-4.92-1.38L214.68,173.06z"/>
			<path d="M228.57,157.06v2.13h-1.6v-2.13H228.57z M228.57,161.32v13.84h-1.6v-13.84H228.57z"/>
			<path d="M244.55,175.17v-1.7c-1.49,1.49-3.27,2.24-5.32,2.24c-2.06,0-3.82-0.73-5.27-2.18c-1.46-1.46-2.18-3.21-2.18-5.27
				c0-2.06,0.73-3.82,2.18-5.27c1.46-1.45,3.21-2.18,5.27-2.18c2.06,0,3.83,0.75,5.32,2.24v-1.72h1.59v13.87
				c0,1.92-0.67,3.55-2.02,4.9c-1.35,1.35-2.98,2.02-4.9,2.02v-1.6c1.48,0,2.73-0.52,3.77-1.55S244.55,176.64,244.55,175.17z
				 M244.55,165.75c-0.28-0.6-0.68-1.15-1.17-1.66c-1.15-1.14-2.53-1.7-4.15-1.7s-3,0.57-4.14,1.71c-1.14,1.14-1.72,2.53-1.72,4.14
				c0,1.62,0.57,3,1.72,4.14c1.14,1.14,2.52,1.72,4.14,1.72s3-0.58,4.15-1.73c0.5-0.5,0.89-1.04,1.17-1.64V165.75z"/>
			<path d="M252,165.35v9.82h-1.6v-13.84h1.6v1.38c1.33-1.28,2.93-1.92,4.79-1.92c1.92,0,3.55,0.67,4.9,2.02
				c1.35,1.35,2.02,2.98,2.02,4.9v7.46h-1.59v-7.46c0-1.48-0.52-2.73-1.56-3.77c-1.04-1.04-2.29-1.55-3.77-1.55
				c-1.48,0-2.74,0.52-3.77,1.55C252.6,164.37,252.26,164.84,252,165.35z"/>
			<path d="M287.68,175.17v-1.7c-1.49,1.49-3.27,2.24-5.32,2.24c-2.06,0-3.82-0.73-5.27-2.18c-1.46-1.46-2.18-3.21-2.18-5.27
				c0-2.06,0.73-3.82,2.18-5.27c1.46-1.45,3.21-2.18,5.27-2.18c2.06,0,3.83,0.75,5.32,2.24v-1.72h1.59v13.87
				c0,1.92-0.67,3.55-2.02,4.9c-1.35,1.35-2.98,2.02-4.9,2.02v-1.6c1.48,0,2.73-0.52,3.77-1.55
				C287.16,177.9,287.68,176.64,287.68,175.17z M287.68,165.75c-0.28-0.6-0.68-1.15-1.17-1.66c-1.15-1.14-2.53-1.7-4.15-1.7
				c-1.62,0-3,0.57-4.14,1.71c-1.14,1.14-1.72,2.53-1.72,4.14c0,1.62,0.57,3,1.72,4.14c1.14,1.14,2.52,1.72,4.14,1.72
				c1.62,0,3-0.58,4.15-1.73c0.5-0.5,0.89-1.04,1.17-1.64V165.75z"/>
			<path d="M295.13,165.35v9.82h-1.6v-13.84h1.6v1.38c1.33-1.28,2.93-1.92,4.79-1.92v1.6c-1.48,0-2.74,0.52-3.77,1.55
				C295.73,164.37,295.39,164.84,295.13,165.35z"/>
			<path d="M314.31,161.3h1.59v13.87h-1.59v-1.7c-1.49,1.49-3.27,2.24-5.32,2.24c-2.06,0-3.82-0.73-5.27-2.18
				c-1.46-1.46-2.18-3.21-2.18-5.27c0-2.06,0.73-3.82,2.18-5.27c1.46-1.45,3.21-2.18,5.27-2.18c2.06,0,3.83,0.75,5.32,2.24V161.3z
				 M314.31,165.75c-0.28-0.6-0.68-1.15-1.17-1.66c-1.15-1.14-2.53-1.7-4.15-1.7s-3,0.57-4.14,1.71c-1.14,1.14-1.72,2.53-1.72,4.14
				c0,1.62,0.57,3,1.72,4.14c1.14,1.14,2.52,1.72,4.14,1.72s3-0.58,4.15-1.73c0.5-0.5,0.89-1.04,1.17-1.64V165.75z M308.15,158.66
				l1.28-4.79h1.68l-1.28,4.79H308.15z"/>
			<path d="M321.76,159.19v2.13h2.13v1.6h-2.13v12.25c0,1.92-0.67,3.55-2.02,4.9c-1.35,1.35-2.98,2.02-4.9,2.02v-1.6
				c1.48,0,2.74-0.52,3.77-1.55c1.04-1.04,1.55-2.29,1.55-3.77v-15.97c0-1.92,0.68-3.55,2.02-4.9c1.35-1.35,2.98-2.02,4.9-2.02v1.6
				c-1.48,0-2.73,0.52-3.77,1.55C322.28,156.46,321.76,157.72,321.76,159.19z"/>
			<path d="M328.15,157.06v2.13h-1.6v-2.13H328.15z M328.15,161.32v13.84h-1.6v-13.84H328.15z"/>
			<path d="M343.36,171.93l1.24,1.02c-0.16,0.19-0.33,0.37-0.51,0.55c-1.46,1.46-3.22,2.19-5.28,2.19c-2.06,0-3.82-0.73-5.27-2.18
				c-1.46-1.46-2.18-3.21-2.18-5.27c0-2.06,0.73-3.82,2.18-5.27c1.46-1.45,3.21-2.18,5.27-2.18c2.06,0,3.82,0.72,5.28,2.17
				c0.18,0.2,0.36,0.39,0.51,0.58l-1.24,1.02c-0.12-0.16-0.26-0.31-0.4-0.47c-1.15-1.14-2.53-1.7-4.15-1.7c-1.62,0-3,0.57-4.14,1.71
				c-1.14,1.14-1.72,2.53-1.72,4.14c0,1.62,0.57,3,1.72,4.14c1.14,1.14,2.52,1.72,4.14,1.72c1.62,0,3-0.58,4.15-1.73
				C343.1,172.23,343.23,172.09,343.36,171.93z"/>
			<path d="M361.69,168.24c0,2.06-0.73,3.82-2.18,5.27c-1.46,1.45-3.21,2.18-5.27,2.18c-2.06,0-3.82-0.73-5.27-2.18
				c-1.46-1.46-2.18-3.21-2.18-5.27c0-2.06,0.73-3.82,2.18-5.27c1.46-1.45,3.21-2.18,5.27-2.18c2.06,0,3.81,0.73,5.27,2.18
				C360.97,164.43,361.69,166.19,361.69,168.24z M354.24,162.39c-1.62,0-3,0.57-4.14,1.71c-1.14,1.14-1.72,2.53-1.72,4.14
				c0,1.62,0.57,3,1.72,4.14c1.14,1.14,2.52,1.72,4.14,1.72s3-0.57,4.14-1.72c1.14-1.14,1.71-2.52,1.71-4.14
				c0-1.62-0.57-3-1.71-4.14C357.24,162.96,355.86,162.39,354.24,162.39z"/>
		</g>
	</g>
</g>
</svg>
