<?xml version="1.0" encoding="utf-8"?>
<!-- Generator: Adobe Illustrator 25.2.1, SVG Export Plug-In . SVG Version: 6.00 Build 0)  -->
<svg version="1.1" id="Camada_1" xmlns="http://www.w3.org/2000/svg" xmlns:xlink="http://www.w3.org/1999/xlink" x="0px" y="0px"
	 viewBox="0 0 178.71 283.46" style="enable-background:new 0 0 178.71 283.46;" xml:space="preserve">
<style type="text/css">
	.st0{fill:none;stroke:#000000;stroke-width:5.1651;stroke-miterlimit:10;}
	.st1{stroke:#FFFFFF;stroke-width:4.1321;stroke-miterlimit:10;}
</style>
<g>
	<g>
		<path d="M125.55,191.71c-4.72-5.49-12.77-11.22-24.16-17.17c-2.07-1.03-5.81-2.83-11.22-5.41c-5.41-2.58-9.49-4.66-12.25-6.27
			c-10.12-5.61-14.67-12.3-13.63-20.09c0.23-2.07,0.81-4.02,1.75-5.86c0,0,0,0,0,0c2.44,1.62,5.14,3.04,8.11,4.25
			c5.74,2.33,12.07,3.54,19,3.64c0.72,0,1.37,0,1.97,0c5.25,0.1,10.69-0.58,16.31-2.04c2.36-0.61,4.59-1.41,6.7-2.37c0,0,0,0,0,0
			c5.68-2.94,6.78-8.74,1.21-12.57c0,0,0,0,0,0c0,0-1.17-0.82-2.42-1.53c-3.8-2.17-7.88-3.8-12.25-4.89
			c-4.37-1.09-8.92-1.63-13.63-1.63c-9.17,0.11-17.05,2.56-23.66,7.32c0,0,0,0,0,0c-6.05-8.43-9.24-19.46-9.54-33.11
			c0.36-16.02,4.66-28.44,12.9-37.28c6.69-7.09,14.63-10.78,23.83-11.07c6.81-0.19,12.99,1.53,18.55,5.17
			c5.56,3.64,8.27,8.18,8.15,13.62c0,1.94,0.92,3.25,2.78,3.93c1.85,0.68,3.7,0.66,5.56-0.07c1.85-0.73,2.78-1.87,2.78-3.42
			c0.12-4.66-1.91-8.71-6.09-12.16c-4.18-3.44-9.05-5.92-14.61-7.43c-5.56-1.5-11.08-2.21-16.58-2.11c-0.6,0-1.26,0-1.97,0
			c-9.92,0.1-18.43,2.43-25.54,6.99c-7.11,4.56-12.58,10.73-16.4,18.49c-2.63,5.53-4.18,11.36-4.66,17.47
			c-0.24,2.43-0.36,5.24-0.36,8.45c0,3.4,0.18,6.36,0.54,8.88c0.6,5.34,2,10.44,4.21,15.29c2.21,4.86,5.2,9.22,8.96,13.11l1.09,1.12
			c0.01,0.01,0.01,0.03,0,0.05c-2.89,3.56-4.67,7.56-5.32,11.99c-0.69,4.92,0.17,9.53,2.59,13.82c2.42,4.29,5.87,8.04,10.35,11.25
			c4.03,2.98,11.44,7.1,22.26,12.36c6.56,3.32,11.39,5.9,14.49,7.73c4.95,2.86,8.8,5.55,11.56,8.07c4.72,4.46,6.9,9.44,6.56,14.94
			c-0.34,4.81-2.33,9.18-5.95,13.13c-3.62,3.95-7.85,6.9-12.68,8.84c-5.87,2.4-11.73,3.03-17.6,1.89
			c-5.87-1.14-11.16-3.83-15.87-8.07c-5.87-5.61-8.8-13.68-8.8-24.21c0-2.63-1.09-4.4-3.28-5.32c-1.84-0.92-3.68-0.83-5.52,0.26
			c-1.84,1.09-2.65,2.78-2.42,5.06c0,7.78,2.04,14.42,6.13,19.92c4.08,5.49,9.81,9.67,17.17,12.53c5.87,2.18,11.99,3.21,18.38,3.09
			c6.38-0.11,12.45-1.43,18.2-3.95c5.18-2.17,9.66-5.21,13.46-9.1c3.8-3.89,6.21-8.3,7.25-13.22
			C133.66,206.25,131.53,198.81,125.55,191.71z M72.92,129.22c5.29-4,11.39-6.12,18.29-6.35c7.25-0.23,13.68,1.52,18.81,5.84
			c4.08,3.43,2.29,7.64-1.39,9.95c-3.96,2.48-10.14,3.4-13.84,3.3c-9.34-0.2-17.42-3.56-24.17-10.85c0-0.01,0-0.01,0-0.01
			C71.34,130.44,72.1,129.82,72.92,129.22z"/>
		<polygon class="st0" points="166.95,234.81 166.95,48.72 89.35,6.09 11.76,48.72 11.76,234.81 89.35,277.38 		"/>
		<circle class="st1" cx="166.95" cy="234.14" r="8.46"/>
		<circle class="st1" cx="11.76" cy="49.37" r="8.46"/>
	</g>
</g>
</svg>
