<?xml version="1.0" encoding="utf-8"?>
<!-- Generator: Adobe Illustrator 25.2.1, SVG Export Plug-In . SVG Version: 6.00 Build 0)  -->
<svg version="1.1" id="Camada_1" xmlns="http://www.w3.org/2000/svg" xmlns:xlink="http://www.w3.org/1999/xlink" x="0px" y="0px"
	 viewBox="0 0 262.35 277.86" style="enable-background:new 0 0 262.35 277.86;" xml:space="preserve">
<style type="text/css">
	.st0{fill:none;stroke:#000000;stroke-width:3.6095;stroke-miterlimit:10;}
	.st1{stroke:#FFFFFF;stroke-width:2.8876;stroke-miterlimit:10;}
</style>
<g>
	<g>
		<g>
			<g>
				<path d="M13.2,215.6c0.16,0,0.3,0,0.44,0c1.22-0.03,2.44,0.17,3.68,0.58c1.23,0.41,2.31,1.09,3.24,2.03
					c0.93,0.94,1.38,2.05,1.35,3.32c0,0.42-0.21,0.74-0.62,0.93c-0.41,0.2-0.82,0.21-1.23,0.02c-0.41-0.18-0.62-0.54-0.62-1.07
					c0.03-1.48-0.58-2.72-1.81-3.71c-1.23-0.99-2.6-1.46-4.11-1.41c-2.04,0.08-3.8,1.09-5.29,3.02c-1.83,2.41-2.78,5.8-2.86,10.17
					c0.08,4.4,1.05,7.8,2.9,10.21c1.48,1.93,3.24,2.93,5.28,2.98c1.51,0.05,2.87-0.42,4.09-1.41c1.22-0.99,1.81-2.23,1.79-3.72
					v-0.04c0-0.5,0.2-0.85,0.62-1.05c0.41-0.2,0.82-0.19,1.23,0.02c0.41,0.21,0.62,0.53,0.62,0.95c0,0.03,0,0.07,0,0.12
					c0.03,1.22-0.43,2.3-1.37,3.24c-0.94,0.94-2.03,1.61-3.28,2.01c-1.25,0.4-2.45,0.58-3.62,0.56c-0.13,0-0.28,0-0.44,0
					c-1.54-0.03-2.94-0.36-4.21-0.99c-1.27-0.64-2.32-1.48-3.16-2.54s-1.5-2.25-1.99-3.58c-0.49-1.32-0.8-2.71-0.93-4.17
					c-0.08-0.69-0.12-1.5-0.12-2.42c0-0.87,0.03-1.64,0.08-2.3c0.11-1.67,0.45-3.26,1.03-4.77c0.85-2.12,2.06-3.8,3.64-5.05
					C9.12,216.26,11,215.63,13.2,215.6z"/>
				<path d="M38.12,241.15c-1.19,1.33-3.02,2.09-5.48,2.3c-1.27,0.11-2.51-0.01-3.72-0.36c-1.21-0.34-2.13-0.94-2.76-1.79
					c-0.5-0.69-0.76-1.48-0.76-2.38c0-1.14,0.34-2.01,1.03-2.6c0.69-0.6,1.64-1.07,2.86-1.41c0.45-0.13,1.46-0.36,3.02-0.68
					c0.66-0.16,1.18-0.28,1.55-0.38c0.37-0.09,0.87-0.24,1.51-0.44c0.64-0.2,1.18-0.45,1.63-0.75c0.45-0.3,0.81-0.66,1.07-1.05
					c-0.13-1.51-0.58-2.76-1.33-3.73c-0.75-0.98-1.62-1.58-2.6-1.81c-0.98-0.23-1.96-0.22-2.94,0.02c-0.98,0.24-1.8,0.81-2.46,1.73
					c-0.66,0.91-0.99,2.03-0.99,3.36c0,0.53-0.2,0.89-0.6,1.07c-0.4,0.19-0.79,0.17-1.17-0.06c-0.38-0.23-0.55-0.56-0.5-1.01
					c0-0.64,0.11-1.23,0.32-1.79c0.56-1.3,1.56-2.32,3.02-3.06c1.46-0.77,2.99-1.09,4.61-0.95c1.75,0.11,3.22,0.72,4.41,1.83
					c1.38,1.27,2.21,3.03,2.5,5.28c0.03,0.21,0.05,0.58,0.08,1.11v9.77h-2.3V241.15z M38.12,234.99c0.03-0.66,0.03-1.38,0-2.15
					c-0.77,0.85-2.36,1.54-4.77,2.07c-1.91,0.42-3.14,0.74-3.7,0.95c-1.3,0.53-1.95,1.56-1.95,3.1c0,1.32,0.44,2.34,1.31,3.06
					c1.09,0.82,2.41,1.1,3.97,0.83c1.56-0.26,2.74-0.93,3.54-1.99C37.51,239.57,38.04,237.61,38.12,234.99z"/>
				<path d="M47.57,225.85c0.72-0.56,1.5-0.93,2.34-1.11s1.7-0.16,2.54,0.08c0.98,0.34,1.61,0.87,1.91,1.59v0.04
					c0.1,0.32,0.13,0.61,0.06,0.87c-0.07,0.27-0.21,0.46-0.44,0.58c-0.23,0.12-0.45,0.19-0.68,0.2c-0.23,0.01-0.45-0.07-0.68-0.24
					c-0.23-0.17-0.39-0.42-0.5-0.73c-0.16-0.45-0.4-0.82-0.72-1.11c-0.64-0.61-1.38-0.77-2.24-0.48c-0.86,0.29-1.38,0.87-1.57,1.75
					c-0.03,0.13-0.04,0.29-0.04,0.48v15.73h-2.3v-17.84h2.3V225.85z"/>
				<path d="M56.43,236.42c-0.21-2.04-0.11-3.85,0.32-5.44c0.34-1.38,0.97-2.53,1.87-3.46c0.9-0.93,2.03-1.55,3.38-1.87
					c0.61-0.19,1.25-0.26,1.91-0.24c0.03,0,0.08,0,0.16,0c0.08,0,0.16,0,0.24,0c0.58-0.03,1.14,0.04,1.67,0.2
					c1.46,0.32,2.66,0.97,3.6,1.95c0.94,0.98,1.58,2.21,1.93,3.7c0.4,1.64,0.46,3.44,0.2,5.4c-0.11,0.85-0.31,1.63-0.62,2.34
					c-0.3,0.71-0.69,1.36-1.15,1.95c-0.46,0.58-1.03,1.07-1.71,1.47c-0.68,0.4-1.42,0.69-2.25,0.87c-0.53,0.13-1.09,0.2-1.67,0.2
					c-0.08,0-0.16,0-0.24,0h-0.04c-0.05,0-0.09,0-0.12,0c-0.66,0-1.3-0.08-1.91-0.24c-1.62-0.4-2.89-1.2-3.83-2.42
					C57.22,239.61,56.64,238.14,56.43,236.42z M60.41,228c-1.09,1.51-1.67,3.66-1.75,6.44c0.08,2.81,0.66,4.95,1.75,6.44
					c0.9,1.27,2.04,1.96,3.42,2.07c0.13,0,0.24,0,0.32,0c0.05,0,0.12,0,0.2,0c1.4-0.11,2.56-0.8,3.46-2.07
					c1.06-1.48,1.63-3.63,1.71-6.44c-0.08-2.78-0.65-4.93-1.71-6.44c-0.9-1.24-2.05-1.92-3.46-2.03c-0.08-0.03-0.15-0.04-0.2-0.04
					c-0.08,0-0.19,0.01-0.32,0.04C62.45,226.08,61.31,226.75,60.41,228z"/>
				<path d="M76.3,243.49v-13.03c0-0.05,0-0.11,0-0.16v-14.74h2.3v27.93H76.3z"/>
				<path d="M83.89,219.69c-0.29-0.29-0.44-0.64-0.44-1.03c0-0.4,0.14-0.74,0.44-1.03c0.29-0.29,0.64-0.44,1.03-0.44
					c0.4,0,0.74,0.15,1.03,0.44c0.29,0.29,0.44,0.64,0.44,1.03c0,0.4-0.15,0.74-0.44,1.03c-0.29,0.29-0.64,0.44-1.03,0.44
					C84.52,220.13,84.18,219.98,83.89,219.69z M86.07,225.37v18.12h-2.3v-18.12H86.07z"/>
				<path d="M93.54,228.99c0.77-0.87,1.69-1.64,2.78-2.3c1.09-0.66,2.15-1.05,3.18-1.15c1.91-0.19,3.42,0.52,4.53,2.11
					c0.56,0.74,0.91,1.47,1.05,2.19c0.15,0.71,0.22,1.64,0.22,2.78v10.89H103v-10.89c0-2.01-0.33-3.48-0.99-4.41
					c-0.4-0.58-0.9-0.99-1.51-1.23c-1.03-0.42-2.19-0.33-3.46,0.28c-1.33,0.61-2.49,1.63-3.5,3.06v13.19h-2.3v-17.84h2.3V228.99z"/>
				<path d="M124.46,237.57c-0.03,1.91-1.01,3.44-2.94,4.61c-1.99,1.17-4.08,1.5-6.28,0.99c-2.57-0.56-4.3-2.11-5.2-4.65
					c-0.37-1.14-0.56-2.42-0.56-3.85c0.03-2.78,0.73-4.99,2.11-6.64c1.17-1.43,2.72-2.3,4.65-2.62c1.72-0.26,3.36-0.05,4.93,0.64
					c1.62,0.69,2.64,1.67,3.06,2.94c0.16,0.4,0.24,0.81,0.24,1.23c0,0.64-0.17,1.21-0.52,1.71c-0.48,0.69-1.35,1.25-2.62,1.67
					c-0.61,0.21-1.84,0.5-3.7,0.87c-1.35,0.29-2.38,0.57-3.1,0.83c-1.27,0.45-2.17,1.06-2.7,1.83c0.16,1.83,0.79,3.26,1.91,4.29
					c0.98,0.93,2.15,1.39,3.5,1.39c0.5,0,0.98-0.07,1.43-0.2c1.11-0.34,1.97-0.97,2.58-1.89c0.61-0.91,0.91-1.97,0.91-3.16
					c0-0.56,0.2-0.93,0.6-1.11c0.4-0.19,0.79-0.16,1.17,0.08C124.3,236.78,124.48,237.12,124.46,237.57z M111.78,234.87
					c0,0.11,0,0.3,0,0.58c0,0.28,0,0.47,0,0.58c0.82-0.82,2.32-1.51,4.49-2.07c1.99-0.48,3.11-0.76,3.38-0.83
					c1.09-0.37,1.8-0.82,2.15-1.35c0.24-0.34,0.36-0.74,0.36-1.19c0-1.01-0.26-1.91-0.79-2.7s-1.25-1.38-2.15-1.75
					c-0.85-0.32-1.7-0.39-2.56-0.22c-0.86,0.17-1.62,0.56-2.28,1.17C112.64,228.65,111.78,231.24,111.78,234.87z"/>
			</g>
			<g>
				<path d="M140.63,242.68c-1.7-0.66-3.01-1.63-3.95-2.9c-0.94-1.27-1.41-2.81-1.41-4.61c-0.05-0.53,0.13-0.92,0.56-1.17
					c0.42-0.25,0.85-0.27,1.27-0.06c0.5,0.21,0.75,0.62,0.75,1.23c0,2.44,0.68,4.3,2.03,5.6c1.09,0.98,2.3,1.6,3.66,1.87
					c1.35,0.26,2.7,0.12,4.05-0.44c1.11-0.45,2.09-1.13,2.92-2.05c0.83-0.91,1.29-1.93,1.37-3.04c0.08-1.27-0.42-2.42-1.51-3.46
					c-0.64-0.58-1.52-1.2-2.66-1.87c-0.72-0.42-1.83-1.02-3.34-1.79c-2.49-1.22-4.2-2.17-5.13-2.86c-1.03-0.74-1.83-1.61-2.38-2.6
					c-0.56-0.99-0.75-2.06-0.6-3.2c0.24-1.62,1.11-2.98,2.62-4.09c1.54-1.14,3.38-1.72,5.52-1.75c1.09,0,2.13,0.13,3.14,0.38
					c1.01,0.25,1.95,0.63,2.82,1.13s1.58,1.2,2.13,2.09c0.54,0.89,0.83,1.9,0.85,3.04c0.03,0.48-0.15,0.84-0.54,1.09
					c-0.38,0.25-0.78,0.28-1.19,0.08c-0.41-0.2-0.63-0.58-0.66-1.13c-0.08-1.99-0.81-3.52-2.19-4.61c-1.22-0.95-2.66-1.4-4.33-1.35
					c-1.59,0.05-2.99,0.54-4.21,1.47c-1.19,0.87-1.85,1.92-1.99,3.14c-0.24,1.8,0.81,3.35,3.14,4.65c0.64,0.37,1.58,0.85,2.82,1.45
					c1.24,0.6,2.11,1.01,2.58,1.25c2.62,1.38,4.48,2.7,5.56,3.97c1.38,1.64,1.87,3.36,1.47,5.16c-0.24,1.14-0.79,2.16-1.67,3.06
					c-0.87,0.9-1.91,1.6-3.1,2.11c-1.33,0.58-2.72,0.89-4.19,0.91C143.4,243.42,141.98,243.18,140.63,242.68z"/>
				<path d="M170.4,241.21c-1.19,1.33-3.02,2.09-5.48,2.3c-1.27,0.11-2.51-0.01-3.72-0.36c-1.21-0.34-2.13-0.94-2.76-1.79
					c-0.5-0.69-0.76-1.48-0.76-2.38c0-1.14,0.34-2.01,1.03-2.6c0.69-0.6,1.64-1.07,2.86-1.41c0.45-0.13,1.46-0.36,3.02-0.68
					c0.66-0.16,1.18-0.28,1.55-0.38c0.37-0.09,0.87-0.24,1.51-0.44s1.18-0.45,1.63-0.75c0.45-0.3,0.81-0.66,1.07-1.05
					c-0.13-1.51-0.58-2.76-1.33-3.73c-0.75-0.98-1.62-1.58-2.6-1.81c-0.98-0.23-1.96-0.22-2.94,0.02c-0.98,0.24-1.8,0.81-2.46,1.73
					c-0.66,0.91-0.99,2.03-0.99,3.36c0,0.53-0.2,0.89-0.6,1.07c-0.4,0.19-0.79,0.17-1.17-0.06c-0.38-0.23-0.55-0.56-0.5-1.01
					c0-0.64,0.11-1.23,0.32-1.79c0.56-1.3,1.56-2.32,3.02-3.06c1.46-0.77,2.99-1.09,4.61-0.95c1.75,0.11,3.22,0.72,4.41,1.83
					c1.38,1.27,2.21,3.03,2.5,5.28c0.03,0.21,0.05,0.58,0.08,1.11v9.77h-2.3V241.21z M170.4,235.05c0.03-0.66,0.03-1.38,0-2.15
					c-0.77,0.85-2.36,1.54-4.77,2.07c-1.91,0.42-3.14,0.74-3.7,0.95c-1.3,0.53-1.95,1.56-1.95,3.1c0,1.32,0.44,2.34,1.31,3.06
					c1.09,0.82,2.41,1.1,3.97,0.83c1.56-0.26,2.74-0.93,3.54-1.99C169.79,239.63,170.32,237.67,170.4,235.05z"/>
				<path d="M179.85,229.05c0.77-0.87,1.7-1.64,2.78-2.3c1.09-0.66,2.15-1.05,3.18-1.15c1.91-0.19,3.42,0.52,4.53,2.11
					c0.55,0.74,0.91,1.47,1.05,2.19c0.15,0.71,0.22,1.64,0.22,2.78v10.89h-2.3v-10.89c0-2.01-0.33-3.48-0.99-4.41
					c-0.4-0.58-0.9-0.99-1.51-1.23c-1.03-0.42-2.19-0.33-3.46,0.28c-1.32,0.61-2.49,1.63-3.5,3.06v13.19h-2.3v-17.84h2.3V229.05z"/>
				<path d="M196.7,226.15h-2.03v-0.8h2.03v-6.44h2.27v6.44h5.01v0.8h-5.01v10.33c0,2.33,0.34,3.97,1.03,4.93
					c0.87,1.25,2.12,1.7,3.73,1.35l0.2-0.04v0.48l-0.12,0.04c-0.21,0.08-0.43,0.15-0.66,0.2c-0.23,0.05-0.44,0.08-0.66,0.08
					c-1.91,0.19-3.43-0.5-4.57-2.07c-0.53-0.74-0.87-1.48-1.01-2.21c-0.15-0.73-0.22-1.65-0.22-2.76V226.15z"/>
				<path d="M219.03,241.21c-1.19,1.33-3.02,2.09-5.48,2.3c-1.27,0.11-2.51-0.01-3.72-0.36c-1.21-0.34-2.13-0.94-2.76-1.79
					c-0.5-0.69-0.75-1.48-0.75-2.38c0-1.14,0.34-2.01,1.03-2.6c0.69-0.6,1.64-1.07,2.86-1.41c0.45-0.13,1.46-0.36,3.02-0.68
					c0.66-0.16,1.18-0.28,1.55-0.38c0.37-0.09,0.87-0.24,1.51-0.44c0.64-0.2,1.18-0.45,1.63-0.75c0.45-0.3,0.81-0.66,1.07-1.05
					c-0.13-1.51-0.58-2.76-1.33-3.73c-0.75-0.98-1.62-1.58-2.6-1.81c-0.98-0.23-1.96-0.22-2.94,0.02c-0.98,0.24-1.8,0.81-2.46,1.73
					c-0.66,0.91-0.99,2.03-0.99,3.36c0,0.53-0.2,0.89-0.6,1.07c-0.4,0.19-0.79,0.17-1.17-0.06c-0.38-0.23-0.55-0.56-0.5-1.01
					c0-0.64,0.11-1.23,0.32-1.79c0.56-1.3,1.56-2.32,3.02-3.06c1.46-0.77,2.99-1.09,4.61-0.95c1.75,0.11,3.22,0.72,4.41,1.83
					c1.38,1.27,2.21,3.03,2.5,5.28c0.03,0.21,0.05,0.58,0.08,1.11v9.77h-2.3V241.21z M219.03,235.05c0.03-0.66,0.03-1.38,0-2.15
					c-0.77,0.85-2.36,1.54-4.77,2.07c-1.91,0.42-3.14,0.74-3.7,0.95c-1.3,0.53-1.95,1.56-1.95,3.1c0,1.32,0.44,2.34,1.31,3.06
					c1.09,0.82,2.41,1.1,3.97,0.83c1.56-0.26,2.74-0.93,3.54-1.99C218.42,239.63,218.95,237.67,219.03,235.05z"/>
				<path d="M228.49,229.05c0.77-0.87,1.69-1.64,2.78-2.3c1.09-0.66,2.15-1.05,3.18-1.15c1.91-0.19,3.42,0.52,4.53,2.11
					c0.56,0.74,0.91,1.47,1.05,2.19c0.15,0.71,0.22,1.64,0.22,2.78v10.89h-2.3v-10.89c0-2.01-0.33-3.48-0.99-4.41
					c-0.4-0.58-0.9-0.99-1.51-1.23c-1.03-0.42-2.19-0.33-3.46,0.28c-1.33,0.61-2.49,1.63-3.5,3.06v13.19h-2.3v-17.84h2.3V229.05z"/>
				<path d="M257.25,241.21c-1.19,1.33-3.02,2.09-5.48,2.3c-1.27,0.11-2.51-0.01-3.72-0.36c-1.21-0.34-2.13-0.94-2.76-1.79
					c-0.5-0.69-0.75-1.48-0.75-2.38c0-1.14,0.34-2.01,1.03-2.6c0.69-0.6,1.64-1.07,2.86-1.41c0.45-0.13,1.46-0.36,3.02-0.68
					c0.66-0.16,1.18-0.28,1.55-0.38c0.37-0.09,0.87-0.24,1.51-0.44s1.18-0.45,1.63-0.75c0.45-0.3,0.81-0.66,1.07-1.05
					c-0.13-1.51-0.58-2.76-1.33-3.73c-0.75-0.98-1.62-1.58-2.6-1.81c-0.98-0.23-1.96-0.22-2.94,0.02c-0.98,0.24-1.8,0.81-2.46,1.73
					c-0.66,0.91-0.99,2.03-0.99,3.36c0,0.53-0.2,0.89-0.6,1.07c-0.4,0.19-0.79,0.17-1.17-0.06c-0.38-0.23-0.55-0.56-0.5-1.01
					c0-0.64,0.11-1.23,0.32-1.79c0.56-1.3,1.56-2.32,3.02-3.06c1.46-0.77,2.99-1.09,4.61-0.95c1.75,0.11,3.22,0.72,4.41,1.83
					c1.38,1.27,2.21,3.03,2.5,5.28c0.03,0.21,0.05,0.58,0.08,1.11v9.77h-2.3V241.21z M257.25,235.05c0.03-0.66,0.03-1.38,0-2.15
					c-0.77,0.85-2.36,1.54-4.77,2.07c-1.91,0.42-3.14,0.74-3.7,0.95c-1.3,0.53-1.95,1.56-1.95,3.1c0,1.32,0.44,2.34,1.31,3.06
					c1.09,0.82,2.41,1.1,3.97,0.83c1.56-0.26,2.74-0.93,3.54-1.99C256.65,239.63,257.18,237.67,257.25,235.05z"/>
			</g>
		</g>
		<path d="M152.73,133.25c-3.3-3.84-8.92-7.84-16.88-12c-1.45-0.72-4.06-1.98-7.84-3.78c-3.78-1.8-6.63-3.26-8.56-4.38
			c-7.07-3.92-10.25-8.6-9.53-14.04c0.16-1.44,0.57-2.81,1.22-4.09c0,0,0,0,0,0c1.7,1.13,3.59,2.12,5.66,2.97
			c4.01,1.63,8.43,2.48,13.28,2.54c0.5,0,0.96,0,1.38,0c3.67,0.07,7.47-0.41,11.4-1.42c1.65-0.43,3.21-0.98,4.68-1.66c0,0,0,0,0,0
			c3.97-2.05,4.74-6.11,0.85-8.78c0,0,0,0,0,0c0,0-0.82-0.57-1.69-1.07c-2.65-1.52-5.51-2.66-8.56-3.42
			c-3.06-0.76-6.23-1.14-9.53-1.14c-6.41,0.08-11.92,1.79-16.53,5.12c0,0,0,0,0,0c-4.23-5.89-6.45-13.6-6.67-23.14
			c0.25-11.19,3.26-19.88,9.02-26.05c4.68-4.95,10.23-7.53,16.66-7.73c4.76-0.14,9.08,1.07,12.96,3.61c3.88,2.54,5.78,5.72,5.7,9.52
			c0,1.36,0.65,2.27,1.94,2.75c1.29,0.48,2.59,0.46,3.88-0.05c1.29-0.51,1.94-1.31,1.94-2.39c0.08-3.26-1.34-6.09-4.26-8.5
			c-2.92-2.41-6.32-4.14-10.21-5.19c-3.88-1.05-7.75-1.54-11.58-1.48c-0.42,0-0.88,0-1.38,0c-6.93,0.07-12.88,1.7-17.85,4.88
			c-4.97,3.19-8.79,7.5-11.46,12.92c-1.84,3.87-2.92,7.94-3.26,12.21c-0.17,1.7-0.25,3.66-0.25,5.9c0,2.38,0.13,4.44,0.38,6.21
			c0.42,3.73,1.4,7.29,2.94,10.69c1.54,3.39,3.63,6.45,6.26,9.16l0.76,0.78c0.01,0.01,0.01,0.02,0,0.03
			c-2.02,2.49-3.26,5.28-3.72,8.38c-0.48,3.44,0.12,6.66,1.81,9.66c1.69,3,4.1,5.62,7.23,7.86c2.81,2.08,8,4.96,15.56,8.64
			c4.58,2.32,7.96,4.12,10.13,5.4c3.46,2,6.15,3.88,8.08,5.64c3.3,3.12,4.82,6.6,4.58,10.44c-0.24,3.36-1.63,6.42-4.16,9.18
			c-2.53,2.76-5.49,4.82-8.86,6.18c-4.1,1.68-8.2,2.12-12.3,1.32c-4.1-0.8-7.8-2.68-11.09-5.64c-4.1-3.92-6.15-9.56-6.15-16.92
			c0-1.84-0.76-3.08-2.29-3.72c-1.29-0.64-2.57-0.58-3.86,0.18c-1.29,0.76-1.85,1.94-1.69,3.54c0,5.44,1.43,10.08,4.28,13.92
			c2.85,3.84,6.85,6.76,12,8.76c4.1,1.52,8.38,2.24,12.84,2.16c4.46-0.08,8.7-1,12.72-2.76c3.62-1.52,6.75-3.64,9.41-6.36
			c2.65-2.72,4.34-5.8,5.06-9.24C158.4,143.41,156.91,138.21,152.73,133.25z M115.95,89.58c3.7-2.8,7.96-4.28,12.78-4.44
			c5.06-0.16,9.56,1.06,13.14,4.08c2.85,2.4,1.6,5.34-0.97,6.95c-2.77,1.74-7.08,2.38-9.67,2.3c-6.52-0.14-12.17-2.48-16.89-7.58
			c0,0,0-0.01,0-0.01C114.84,90.44,115.37,90,115.95,89.58z"/>
		<polygon class="st0" points="181.66,163.37 181.66,33.32 127.43,3.53 73.21,33.32 73.21,163.37 127.43,193.12 		"/>
		<circle class="st1" cx="181.66" cy="162.9" r="5.91"/>
		<circle class="st1" cx="73.21" cy="33.78" r="5.91"/>
	</g>
	<g>
		<path d="M78.89,259.92h1.08v11.82h-1.08v-1.15c-1,1-2.2,1.5-3.58,1.5s-2.57-0.49-3.55-1.47c-0.98-0.98-1.47-2.16-1.47-3.55
			c0-1.38,0.49-2.57,1.47-3.55c0.98-0.98,2.16-1.47,3.55-1.47s2.58,0.5,3.58,1.5V259.92z M78.89,265.41
			c-0.19-0.4-0.46-0.77-0.8-1.12c-0.77-0.76-1.69-1.15-2.78-1.15c-1.09,0-2.02,0.38-2.79,1.15c-0.77,0.77-1.15,1.7-1.15,2.79
			c0,1.09,0.38,2.02,1.15,2.79c0.77,0.77,1.7,1.15,2.79,1.15c1.09,0,2.02-0.39,2.78-1.16c0.34-0.33,0.61-0.7,0.8-1.1V265.41z"/>
		<path d="M84.74,270.24c0.69,0.52,1.48,0.79,2.38,0.79c1.09,0,2.02-0.39,2.79-1.16l0.76,0.76c-0.98,0.98-2.17,1.48-3.55,1.48
			c-1.39,0-2.57-0.49-3.55-1.47c-0.98-0.98-1.47-2.16-1.47-3.55c0-1.38,0.49-2.57,1.47-3.55c0.98-0.98,2.16-1.47,3.55-1.47
			c1.38,0,2.57,0.49,3.55,1.46c0.12,0.13,0.24,0.27,0.36,0.42L84.74,270.24z M89.51,263.95c-0.69-0.53-1.49-0.8-2.39-0.8
			c-1.09,0-2.02,0.38-2.79,1.15c-0.77,0.77-1.15,1.7-1.15,2.79c0,0.91,0.27,1.71,0.8,2.39L89.51,263.95z"/>
		<path d="M93.17,270.32c0.85,0.47,1.71,0.7,2.59,0.7c0.76,0,1.37-0.15,1.84-0.46c0.47-0.31,0.7-0.71,0.7-1.22
			c0-0.37-0.11-0.69-0.33-0.95c-0.22-0.26-0.57-0.44-1.06-0.54l-2.01-0.49c-0.75-0.22-1.31-0.55-1.68-1
			c-0.38-0.45-0.57-0.99-0.57-1.62c0-0.73,0.29-1.35,0.87-1.87c0.58-0.52,1.36-0.79,2.32-0.81c1.36,0,2.49,0.38,3.41,1.13
			l-0.83,0.72c-0.75-0.52-1.6-0.77-2.57-0.77c-0.7,0.02-1.23,0.19-1.59,0.51c-0.36,0.32-0.54,0.69-0.54,1.11
			c0,0.36,0.11,0.68,0.34,0.94c0.23,0.26,0.58,0.46,1.06,0.59l2.11,0.54c0.67,0.16,1.19,0.46,1.57,0.9
			c0.38,0.43,0.56,0.97,0.56,1.61c0,0.81-0.34,1.47-1.02,1.98s-1.54,0.77-2.59,0.77c-1.19,0-2.3-0.31-3.31-0.93L93.17,270.32z"/>
		<path d="M102.52,259.56V261h-1.08v-1.43H102.52z M102.52,262.43v9.31h-1.08v-9.31H102.52z"/>
		<path d="M113.27,271.74v-1.15c-1,1-2.2,1.5-3.58,1.5c-1.39,0-2.57-0.49-3.55-1.47c-0.98-0.98-1.47-2.16-1.47-3.55
			c0-1.38,0.49-2.57,1.47-3.55c0.98-0.98,2.16-1.47,3.55-1.47c1.38,0,2.58,0.5,3.58,1.5v-1.16h1.07v9.33c0,1.29-0.45,2.39-1.36,3.3
			c-0.91,0.91-2.01,1.36-3.3,1.36v-1.08c0.99,0,1.84-0.35,2.54-1.05C112.92,273.58,113.27,272.74,113.27,271.74z M113.27,265.41
			c-0.19-0.4-0.45-0.77-0.79-1.12c-0.77-0.76-1.7-1.15-2.79-1.15c-1.09,0-2.02,0.38-2.79,1.15c-0.77,0.77-1.15,1.7-1.15,2.79
			c0,1.09,0.38,2.02,1.15,2.79c0.77,0.77,1.7,1.15,2.79,1.15c1.09,0,2.02-0.39,2.79-1.16c0.33-0.33,0.6-0.7,0.79-1.1V265.41z"/>
		<path d="M118.28,265.14v6.61h-1.08v-9.31h1.08v0.93c0.9-0.86,1.97-1.29,3.23-1.29c1.29,0,2.39,0.45,3.3,1.36
			c0.91,0.91,1.36,2.01,1.36,3.3v5.02h-1.07v-5.02c0-0.99-0.35-1.84-1.05-2.54c-0.7-0.7-1.54-1.05-2.54-1.05
			c-0.99,0-1.84,0.35-2.54,1.05C118.68,264.48,118.45,264.79,118.28,265.14z"/>
		<path d="M142.29,271.74v-1.15c-1,1-2.2,1.5-3.58,1.5c-1.39,0-2.57-0.49-3.55-1.47c-0.98-0.98-1.47-2.16-1.47-3.55
			c0-1.38,0.49-2.57,1.47-3.55c0.98-0.98,2.16-1.47,3.55-1.47c1.38,0,2.58,0.5,3.58,1.5v-1.16h1.07v9.33c0,1.29-0.45,2.39-1.36,3.3
			c-0.91,0.91-2.01,1.36-3.3,1.36v-1.08c0.99,0,1.84-0.35,2.54-1.05C141.94,273.58,142.29,272.74,142.29,271.74z M142.29,265.41
			c-0.19-0.4-0.45-0.77-0.79-1.12c-0.77-0.76-1.7-1.15-2.79-1.15s-2.02,0.38-2.79,1.15c-0.77,0.77-1.15,1.7-1.15,2.79
			c0,1.09,0.38,2.02,1.15,2.79c0.77,0.77,1.7,1.15,2.79,1.15s2.02-0.39,2.79-1.16c0.33-0.33,0.6-0.7,0.79-1.1V265.41z"/>
		<path d="M147.3,265.14v6.61h-1.08v-9.31h1.08v0.93c0.9-0.86,1.97-1.29,3.23-1.29v1.07c-0.99,0-1.84,0.35-2.54,1.05
			C147.7,264.48,147.47,264.79,147.3,265.14z"/>
		<path d="M160.2,262.41h1.07v9.33h-1.07v-1.15c-1,1-2.2,1.5-3.58,1.5c-1.39,0-2.57-0.49-3.55-1.47c-0.98-0.98-1.47-2.16-1.47-3.55
			c0-1.38,0.49-2.57,1.47-3.55c0.98-0.98,2.16-1.47,3.55-1.47c1.38,0,2.58,0.5,3.58,1.5V262.41z M160.2,265.41
			c-0.19-0.4-0.45-0.77-0.79-1.12c-0.77-0.76-1.7-1.15-2.79-1.15c-1.09,0-2.02,0.38-2.79,1.15c-0.77,0.77-1.15,1.7-1.15,2.79
			c0,1.09,0.38,2.02,1.15,2.79c0.77,0.77,1.7,1.15,2.79,1.15c1.09,0,2.02-0.39,2.79-1.16c0.33-0.33,0.6-0.7,0.79-1.1V265.41z
			 M156.06,260.64l0.86-3.22h1.13l-0.86,3.22H156.06z"/>
		<path d="M165.21,261v1.43h1.43v1.07h-1.43v8.24c0,1.29-0.45,2.39-1.36,3.3c-0.91,0.91-2.01,1.36-3.3,1.36v-1.08
			c0.99,0,1.84-0.35,2.54-1.05c0.7-0.7,1.04-1.54,1.04-2.54V261c0-1.29,0.45-2.39,1.36-3.3c0.91-0.91,2.01-1.36,3.3-1.36v1.08
			c-0.99,0-1.84,0.35-2.54,1.05C165.56,259.16,165.21,260,165.21,261z"/>
		<path d="M169.51,259.56V261h-1.08v-1.43H169.51z M169.51,262.43v9.31h-1.08v-9.31H169.51z"/>
		<path d="M179.74,269.56l0.83,0.69c-0.1,0.12-0.22,0.25-0.35,0.37c-0.98,0.98-2.17,1.48-3.55,1.48c-1.39,0-2.57-0.49-3.55-1.47
			c-0.98-0.98-1.47-2.16-1.47-3.55c0-1.38,0.49-2.57,1.47-3.55c0.98-0.98,2.16-1.47,3.55-1.47c1.38,0,2.57,0.49,3.55,1.46
			c0.12,0.13,0.24,0.26,0.35,0.39l-0.83,0.69c-0.08-0.1-0.17-0.21-0.27-0.32c-0.77-0.76-1.7-1.15-2.79-1.15
			c-1.09,0-2.02,0.38-2.79,1.15c-0.77,0.77-1.15,1.7-1.15,2.79c0,1.09,0.38,2.02,1.15,2.79c0.77,0.77,1.7,1.15,2.79,1.15
			c1.09,0,2.02-0.39,2.79-1.16C179.57,269.77,179.66,269.67,179.74,269.56z"/>
		<path d="M192.08,267.09c0,1.39-0.49,2.57-1.47,3.55c-0.98,0.98-2.16,1.47-3.55,1.47c-1.39,0-2.57-0.49-3.55-1.47
			c-0.98-0.98-1.47-2.16-1.47-3.55c0-1.38,0.49-2.57,1.47-3.55c0.98-0.98,2.16-1.47,3.55-1.47c1.38,0,2.57,0.49,3.55,1.47
			C191.59,264.52,192.08,265.7,192.08,267.09z M187.07,263.14c-1.09,0-2.02,0.38-2.79,1.15c-0.77,0.77-1.15,1.7-1.15,2.79
			c0,1.09,0.38,2.02,1.15,2.79c0.77,0.77,1.7,1.15,2.79,1.15s2.02-0.38,2.79-1.15c0.77-0.77,1.15-1.7,1.15-2.79
			c0-1.09-0.38-2.02-1.15-2.79C189.08,263.53,188.16,263.14,187.07,263.14z"/>
	</g>
</g>
</svg>
